<mxfile host="app.diagrams.net" modified="2023-08-18T12:06:04.288Z" agent="Mozilla/5.0 (Windows NT 10.0; Win64; x64) AppleWebKit/537.36 (KHTML, like Gecko) Chrome/115.0.0.0 Safari/537.36" etag="01nVXIW9W4O0ilQtKQuo" version="21.6.8" type="google">
  <diagram name="Page-1" id="q1g5tpVNx9qRCXm79hbO">
    <mxGraphModel grid="1" page="1" gridSize="10" guides="1" tooltips="1" connect="1" arrows="1" fold="1" pageScale="1" pageWidth="850" pageHeight="1100" math="0" shadow="0">
      <root>
        <mxCell id="0" />
        <mxCell id="1" parent="0" />
        <mxCell id="fFqhSrB9PLc58pTmDqva-1" value="" style="rounded=1;whiteSpace=wrap;html=1;" vertex="1" parent="1">
          <mxGeometry x="70" y="110" width="220" height="290" as="geometry" />
        </mxCell>
        <mxCell id="fFqhSrB9PLc58pTmDqva-2" value="&lt;b&gt;GCP&lt;/b&gt;" style="text;html=1;strokeColor=none;fillColor=none;align=center;verticalAlign=middle;whiteSpace=wrap;rounded=0;" vertex="1" parent="1">
          <mxGeometry x="100" y="130" width="60" height="30" as="geometry" />
        </mxCell>
        <mxCell id="fFqhSrB9PLc58pTmDqva-3" value="cloud run" style="text;html=1;strokeColor=none;fillColor=none;align=center;verticalAlign=middle;whiteSpace=wrap;rounded=0;" vertex="1" parent="1">
          <mxGeometry x="110" y="160" width="60" height="30" as="geometry" />
        </mxCell>
        <mxCell id="fFqhSrB9PLc58pTmDqva-4" value="" style="rounded=1;whiteSpace=wrap;html=1;" vertex="1" parent="1">
          <mxGeometry x="520" y="110" width="220" height="290" as="geometry" />
        </mxCell>
        <mxCell id="fFqhSrB9PLc58pTmDqva-5" value="&lt;b&gt;GCP&lt;/b&gt;" style="text;html=1;strokeColor=none;fillColor=none;align=center;verticalAlign=middle;whiteSpace=wrap;rounded=0;" vertex="1" parent="1">
          <mxGeometry x="570" y="130" width="60" height="30" as="geometry" />
        </mxCell>
        <mxCell id="fFqhSrB9PLc58pTmDqva-6" value="&amp;nbsp;app engine" style="text;html=1;strokeColor=none;fillColor=none;align=center;verticalAlign=middle;whiteSpace=wrap;rounded=0;" vertex="1" parent="1">
          <mxGeometry x="580" y="160" width="60" height="30" as="geometry" />
        </mxCell>
        <mxCell id="fFqhSrB9PLc58pTmDqva-13" style="edgeStyle=orthogonalEdgeStyle;rounded=0;orthogonalLoop=1;jettySize=auto;html=1;" edge="1" parent="1" source="fFqhSrB9PLc58pTmDqva-7" target="fFqhSrB9PLc58pTmDqva-12">
          <mxGeometry relative="1" as="geometry" />
        </mxCell>
        <mxCell id="fFqhSrB9PLc58pTmDqva-7" value="" style="ellipse;shape=cloud;whiteSpace=wrap;html=1;" vertex="1" parent="1">
          <mxGeometry x="350" y="160" width="100" height="80" as="geometry" />
        </mxCell>
        <mxCell id="fFqhSrB9PLc58pTmDqva-10" style="edgeStyle=orthogonalEdgeStyle;rounded=0;orthogonalLoop=1;jettySize=auto;html=1;entryX=0.957;entryY=0.447;entryDx=0;entryDy=0;entryPerimeter=0;" edge="1" parent="1" source="fFqhSrB9PLc58pTmDqva-9" target="fFqhSrB9PLc58pTmDqva-7">
          <mxGeometry relative="1" as="geometry" />
        </mxCell>
        <mxCell id="fFqhSrB9PLc58pTmDqva-9" value="api myself" style="rounded=1;whiteSpace=wrap;html=1;" vertex="1" parent="1">
          <mxGeometry x="560" y="235" width="120" height="60" as="geometry" />
        </mxCell>
        <mxCell id="fFqhSrB9PLc58pTmDqva-12" value="landing page" style="rounded=1;whiteSpace=wrap;html=1;" vertex="1" parent="1">
          <mxGeometry x="120" y="225" width="120" height="60" as="geometry" />
        </mxCell>
      </root>
    </mxGraphModel>
  </diagram>
</mxfile>
